HIERARCHY
ROOT Hips
{
 OFFSET 0.000000 0.000000 0.000000
 CHANNELS 6 Xposition Yposition Zposition Yrotation Xrotation Zrotation
 JOINT Chest
 {
  OFFSET 0.000000 9.585900 0.002600
  CHANNELS 3 Yrotation Xrotation Zrotation
  JOINT Chest2
  {
   OFFSET 0.000000 9.601200 -0.005300
   CHANNELS 3 Yrotation Xrotation Zrotation
   JOINT Chest3
   {
    OFFSET 0.000000 9.561800 0.000000
    CHANNELS 3 Yrotation Xrotation Zrotation
    JOINT Chest4
    {
     OFFSET 0.000000 9.552100 0.000000
     CHANNELS 3 Yrotation Xrotation Zrotation
     JOINT Neck
     {
      OFFSET 0.000000 14.453000 0.000000
      CHANNELS 3 Yrotation Xrotation Zrotation
      JOINT Head
      {
       OFFSET 0.000000 8.936500 -0.011300
       CHANNELS 3 Yrotation Xrotation Zrotation
       End Site
       {
        OFFSET 0.000000 17.073600 -0.006000
       }
      }
     }
     JOINT RightCollar
     {
      OFFSET -2.921100 9.558500 0.000000
      CHANNELS 3 Yrotation Xrotation Zrotation
      JOINT RightShoulder
      {
       OFFSET -13.519700 0.000000 0.000000
       CHANNELS 3 Yrotation Xrotation Zrotation
       JOINT RightElbow
       {
        OFFSET 0.000000 -29.696600 0.000000
        CHANNELS 3 Yrotation Xrotation Zrotation
        JOINT RightWrist
        {
         OFFSET 0.000000 -24.004700 0.000000
         CHANNELS 3 Yrotation Xrotation Zrotation
         End Site
         {
          OFFSET 0.000000 -17.728500 0.000000
         }
        }
       }
      }
     }
     JOINT LeftCollar
     {
      OFFSET 2.921100 9.558500 0.000000
      CHANNELS 3 Yrotation Xrotation Zrotation
      JOINT LeftShoulder
      {
       OFFSET 13.519700 0.000000 0.000000
       CHANNELS 3 Yrotation Xrotation Zrotation
       JOINT LeftElbow
       {
        OFFSET 0.000000 -29.696600 0.000000
        CHANNELS 3 Yrotation Xrotation Zrotation
        JOINT LeftWrist
        {
         OFFSET 0.000000 -24.004700 0.000000
         CHANNELS 3 Yrotation Xrotation Zrotation
         End Site
         {
          OFFSET 0.000000 -17.728500 0.000000
         }
        }
       }
      }
     }
    }
   }
  }
 }
 JOINT RightHip
 {
  OFFSET -7.771700 -0.012900 -0.001300
  CHANNELS 3 Yrotation Xrotation Zrotation
  JOINT RightKnee
  {
   OFFSET 0.000000 -40.869800 0.001200
   CHANNELS 3 Yrotation Xrotation Zrotation
   JOINT RightAnkle
   {
    OFFSET 0.000000 -39.717900 0.002100
    CHANNELS 3 Yrotation Xrotation Zrotation
    JOINT RightToe
    {
     OFFSET 0.000000 -4.965400 11.033500
     CHANNELS 3 Yrotation Xrotation Zrotation
     End Site
     {
      OFFSET 0.000000 -1.423100 5.872300
     }
    }
   }
  }
 }
 JOINT LeftHip
 {
  OFFSET 7.771700 -0.012900 -0.001300
  CHANNELS 3 Yrotation Xrotation Zrotation
  JOINT LeftKnee
  {
   OFFSET 0.000000 -40.869800 0.001200
   CHANNELS 3 Yrotation Xrotation Zrotation
   JOINT LeftAnkle
   {
    OFFSET 0.000000 -39.717900 0.002100
    CHANNELS 3 Yrotation Xrotation Zrotation
    JOINT LeftToe
    {
     OFFSET 0.000000 -4.965400 11.033500
     CHANNELS 3 Yrotation Xrotation Zrotation
     End Site
     {
      OFFSET 0.000000 -1.423100 5.872300
     }
    }
   }
  }
 }
}
MOTION
Frames: 16
Frame Time: 0.008333
0.000000 85.388000 0.000000 0.000000 -5.767877 0.000000 0.000000 11.653817 0.000000 0.000000 -5.885947 0.000000 0.000000 -0.000000 0.000000 0.000000 -0.000000 0.000000 0.000000 12.528835 0.000000 0.000000 0.711642 0.000000 0.000000 -0.000000 0.000000 0.000000 0.000000 -90.000000 0.000000 -2.309062 0.000000 0.000000 2.309062 0.000000 0.000000 -0.000000 0.000000 0.000000 -0.000000 90.000000 0.000000 -2.309062 0.000000 0.000000 2.309062 0.000000 0.000000 8.520406 0.000000 0.000000 1.905762 0.000000 -0.000000 -4.658285 0.000000 0.000000 -0.000000 0.000000 0.000000 8.520406 0.000000 0.000000 1.905762 0.000000 -0.000000 -4.658285 0.000000 0.000000 -0.000000 0.000000
-208.534054 57.823898 -69.195055 158.001758 -5.241370 1.999646 2.905701 4.571789 2.415018 0.076470 0.162098 0.042432 0.145614 0.256826 0.098516 2.426752 4.433767 1.593054 -1.200880 15.254397 1.109384 -2.616484 -7.400354 2.509997 3.073425 8.429519 0.725041 -1.239160 -13.172087 -15.087921 -63.825082 -59.450859 108.253672 -2.560233 2.647661 0.825542 -7.961832 6.516241 -3.899410 5.824395 -16.467908 12.453422 47.738883 -50.676347 -102.867698 -2.787728 2.309991 -13.083797 -18.020250 -66.282175 10.215441 -31.786608 73.266745 -30.954725 -2.330442 -8.339109 -3.624838 -0.240099 0.845046 -0.077973 2.161126 -68.207214 15.034202 41.400342 65.897674 34.391660 -18.307346 -8.922773 2.569657 -0.357017 -1.002592 -0.133669
-208.539721 57.823638 -69.200248 158.015572 -5.252064 1.999205 2.894083 4.573186 2.424048 0.076908 0.159223 0.041091 0.144821 0.261005 0.098279 2.418271 4.431620 1.604691 -1.184345 15.279936 1.086479 -2.621362 -7.398496 2.504584 3.008362 8.451443 0.714927 -1.303762 -12.865565 -14.901411 -63.408531 -59.414384 107.958780 -2.584608 2.648763 0.699193 -7.902250 6.576158 -3.900733 5.784391 -16.185048 12.373545 47.520077 -50.526349 -102.706583 -2.865640 2.310506 -13.414968 -17.974199 -66.277844 10.169264 -31.831698 73.267221 -30.992565 -2.356019 -8.340329 -3.625594 -0.230977 0.843215 -0.080637 2.199118 -68.202649 14.992786 41.387331 65.909056 34.388782 -18.340759 -8.948519 2.576575 -0.348870 -1.001588 -0.134272
-208.546729 57.823618 -69.206585 158.022592 -5.266986 2.002710 2.886614 4.582745 2.427563 0.080724 0.155804 0.044536 0.141326 0.267490 0.090708 2.406759 4.429428 1.620005 -1.166814 15.301892 1.064681 -2.559735 -7.297789 2.415026 2.981632 8.460846 0.700727 -1.416253 -12.568312 -14.698179 -62.982510 -59.367417 107.654555 -2.619526 2.644890 0.554652 -7.840298 6.628286 -3.900728 5.756071 -15.891768 12.282059 47.349641 -50.423027 -102.584340 -2.959047 2.322615 -13.797795 -17.908668 -66.271576 10.110828 -31.871690 73.269704 -31.038146 -2.357532 -8.340463 -3.611414 -0.241677 0.842687 -0.078179 2.241389 -68.190607 14.956630 41.386039 65.920327 34.387923 -18.378980 -8.975941 2.581464 -0.311979 -0.998713 -0.127242
-208.556679 57.823590 -69.210552 158.048298 -5.264914 2.010741 2.859858 4.578746 2.419144 0.079399 0.151256 0.051376 0.140838 0.267711 0.091365 2.394001 4.434467 1.627246 -1.149301 15.325154 1.042776 -2.519283 -7.238980 2.355218 2.902782 8.463283 0.695161 -1.475369 -12.277058 -14.506992 -62.577249 -59.330167 107.359457 -2.663035 2.635887 0.391329 -7.777052 6.677840 -3.898523 5.748699 -15.593512 12.175884 47.233017 -50.376615 -102.503759 -3.071265 2.344511 -14.206538 -17.871174 -66.281992 10.060551 -31.895357 73.270022 -31.074663 -2.353085 -8.344500 -3.607488 -0.255845 0.848035 -0.067662 2.271688 -68.194777 14.910786 41.376089 65.928006 34.357777 -18.371015 -8.985819 2.599154 -0.306519 -1.002499 -0.124652
-208.564034 57.823826 -69.214030 158.065553 -5.268536 2.001101 2.839070 4.580527 2.432958 0.079033 0.151192 0.051728 0.135476 0.269062 0.100274 2.385022 4.435598 1.627737 -1.134102 15.346565 1.020577 -2.484023 -7.198906 2.310932 2.824671 8.456751 0.690386 -1.526480 -11.984009 -14.316357 -62.222082 -59.324757 107.088963 -2.710894 2.620442 0.203813 -7.713326 6.726757 -3.894909 5.770908 -15.293156 12.052696 47.163058 -50.388607 -102.469889 -3.193905 2.373382 -14.601471 -17.889326 -66.277681 10.069289 -31.903704 73.270131 -31.100736 -2.337224 -8.343931 -3.591980 -0.273856 0.847429 -0.077985 2.276884 -68.191562 14.900079 41.346811 65.929863 34.331866 -18.376399 -9.009832 2.584081 -0.287732 -0.990736 -0.106816
-208.573481 57.824200 -69.216064 158.079682 -5.262705 1.998504 2.820543 4.577236 2.444594 0.080216 0.149390 0.050001 0.135327 0.269755 0.095764 2.366659 4.436377 1.636765 -1.114629 15.384434 0.998582 -2.448423 -7.177270 2.269163 2.806420 8.450888 0.679317 -1.627697 -11.697796 -14.113410 -61.933045 -59.370487 106.851018 -2.756171 2.599314 -0.009507 -7.648987 6.772535 -3.887251 5.825383 -14.985997 11.909133 47.132947 -50.457872 -102.477311 -3.317817 2.402317 -14.958700 -17.854501 -66.289639 10.038750 -31.926341 73.267610 -31.127479 -2.345993 -8.337494 -3.578016 -0.278648 0.844094 -0.080220 2.273924 -68.198638 14.893158 41.343404 65.930413 34.323956 -18.392460 -9.020752 2.571133 -0.262617 -0.990627 -0.092257
-208.582557 57.824742 -69.217300 158.099903 -5.256922 1.990691 2.799645 4.572283 2.452211 0.070578 0.152251 0.054185 0.145156 0.265938 0.090658 2.342536 4.438382 1.646629 -1.093452 15.388098 0.983785 -2.412950 -7.121062 2.220714 2.789870 8.442888 0.670494 -1.722778 -11.413742 -13.917131 -61.719532 -59.483733 106.654412 -2.791051 2.578830 -0.251275 -7.580181 6.813330 -3.873244 5.903905 -14.665199 11.741373 47.147059 -50.587779 -102.518333 -3.439727 2.434099 -15.269040 -17.793811 -66.298059 9.994651 -31.977632 73.251977 -31.188356 -2.349163 -8.332720 -3.535216 -0.299209 0.847364 -0.093245 2.269166 -68.205141 14.892276 41.340969 65.929777 34.307011 -18.406509 -9.036650 2.561950 -0.259529 -0.976844 -0.067739
-208.590342 57.825325 -69.218137 158.116536 -5.254971 1.974616 2.770811 4.572923 2.467975 0.074211 0.151161 0.052568 0.147709 0.264838 0.093056 2.320185 4.441269 1.650692 -1.069952 15.408316 0.968710 -2.393408 -7.112852 2.201076 2.742363 8.425553 0.666806 -1.776304 -11.124759 -13.736462 -61.592278 -59.676180 106.505056 -2.809588 2.566752 -0.524339 -7.528233 6.829760 -3.868268 6.016134 -14.314114 11.562855 47.209844 -50.777001 -102.587509 -3.551845 2.476361 -15.529889 -17.797060 -66.298257 10.002080 -32.003848 73.243110 -31.217167 -2.364176 -8.325957 -3.519882 -0.293520 0.843096 -0.099947 2.236707 -68.210150 14.924717 41.323311 65.936456 34.279313 -18.440239 -9.046523 2.564432 -0.231528 -0.968802 -0.056234
-208.597907 57.825987 -69.219824 158.129882 -5.261169 1.959078 2.745408 4.583380 2.481357 0.075825 0.150734 0.052757 0.148020 0.261922 0.093190 2.300115 4.446882 1.655200 -1.061980 15.453752 0.941084 -2.333559 -7.084097 2.156307 2.700394 8.404787 0.659199 -1.822641 -10.839974 -13.556937 -61.561148 -59.956811 106.406427 -2.806794 2.568701 -0.830339 -7.471765 6.841757 -3.860817 6.132294 -13.954228 11.362732 47.315098 -51.017336 -102.673460 -3.658529 2.515475 -15.747797 -17.794395 -66.289834 10.004363 -32.040507 73.233800 -31.247371 -2.389093 -8.323681 -3.528023 -0.265377 0.840505 -0.089683 2.193081 -68.206748 14.962454 41.315138 65.946051 34.258924 -18.447053 -9.056395 2.577219 -0.275160 -0.984558 -0.078539
-208.609474 57.826533 -69.221640 158.141899 -5.261839 1.965804 2.725221 4.589089 2.472349 0.071960 0.152069 0.051596 0.136886 0.265600 0.095043 2.292385 4.447253 1.657844 -1.037944 15.458886 0.930089 -2.288243 -7.015943 2.099930 2.601269 8.360630 0.642768 -1.798865 -10.539115 -13.384433 -61.630032 -60.330915 106.363619 -2.781639 2.589313 -1.173420 -7.392376 6.859902 -3.834812 6.230880 -13.594921 11.126435 47.451721 -51.304381 -102.761116 -3.765424 2.534405 -15.941801 -17.769312 -66.292964 9.975408 -32.036755 73.229150 -31.260466 -2.382275 -8.326400 -3.521220 -0.277659 0.849329 -0.081382 2.204289 -68.206832 14.941349 41.308339 65.956312 34.230162 -18.445299 -9.056188 2.602932 -0.292909 -0.992781 -0.089284
-208.618471 57.826749 -69.221973 158.150557 -5.262110 1.955136 2.715151 4.590528 2.481703 0.065071 0.154655 0.049176 0.143380 0.263081 0.097557 2.280091 4.450791 1.659149 -1.027728 15.469718 0.922246 -2.254277 -6.962185 2.057482 2.585835 8.347306 0.636869 -1.864473 -10.271873 -13.214373 -61.787622 -60.793331 106.376492 -2.732373 2.634264 -1.557529 -7.298520 6.885948 -3.782366 6.307284 -13.229683 10.848293 47.615090 -51.638779 -102.842943 -3.817824 2.605707 -16.162189 -17.781993 -66.291246 9.992916 -32.039399 73.220166 -31.284447 -2.368810 -8.314765 -3.495089 -0.293502 0.847203 -0.089661 2.175107 -68.208197 14.964763 41.302978 65.959622 34.217209 -18.451411 -9.063017 2.602770 -0.278955 -0.991969 -0.085594
-208.627300 57.826611 -69.221028 158.156311 -5.257307 1.941270 2.697934 4.590538 2.488616 0.074607 0.150857 0.053149 0.132105 0.267032 0.094093 2.279431 4.450125 1.663884 -1.024371 15.495559 0.907893 -2.215812 -6.919340 2.022986 2.572672 8.335225 0.631256 -1.924450 -10.015017 -13.057886 -62.015445 -61.329860 106.442075 -2.650068 2.712054 -1.991383 -7.221939 6.895156 -3.741530 6.403285 -12.844735 10.565132 47.812836 -52.018612 -102.922632 -3.862016 2.695206 -16.267879 -17.753385 -66.299629 9.991655 -32.100598 73.204828 -31.348319 -2.391310 -8.295972 -3.474967 -0.271036 0.834517 -0.098462 2.178977 -68.221506 14.969556 41.282736 65.967991 34.194708 -18.464657 -9.056070 2.615939 -0.267035 -1.001462 -0.086912
-208.638169 57.826351 -69.221091 158.161024 -5.254759 1.942031 2.667613 4.605440 2.474667 0.085111 0.142123 0.059523 0.131405 0.267033 0.094159 2.267090 4.453365 1.664153 -1.007595 15.517845 0.894350 -2.190554 -6.914024 2.013512 2.545612 8.310730 0.617607 -1.941416 -9.765577 -12.913749 -62.301469 -61.925780 106.553866 -2.523160 2.832197 -2.488576 -7.143761 6.890705 -3.704694 6.514737 -12.450288 10.277444 48.052021 -52.439496 -103.003918 -3.928692 2.757143 -16.354694 -17.735239 -66.306102 9.980776 -32.091353 73.199592 -31.358297 -2.389752 -8.288737 -3.450979 -0.282511 0.835732 -0.107547 2.203214 -68.228226 14.946113 41.264538 65.973863 34.171371 -18.473643 -9.048345 2.628668 -0.264951 -1.006754 -0.085877
-208.652315 57.825439 -69.216660 158.166104 -5.220379 1.952665 2.652680 4.579857 2.453042 0.073666 0.151392 0.053331 0.133206 0.266265 0.096969 2.264277 4.453144 1.671766 -0.990895 15.539451 0.881584 -2.145524 -6.853717 1.970470 2.517585 8.275963 0.602298 -1.940703 -9.527519 -12.790799 -62.648241 -62.573698 106.709108 -2.348204 3.005461 -3.053480 -7.083024 6.877073 -3.675927 6.640368 -12.052022 9.987756 48.333997 -52.904134 -103.083913 -4.000446 2.820074 -16.438676 -17.732103 -66.343345 9.981590 -32.059725 73.183055 -31.355820 -2.364257 -8.278662 -3.434521 -0.316135 0.847152 -0.105104 2.240225 -68.263388 14.906001 41.277980 65.963985 34.158750 -18.472863 -9.029463 2.650953 -0.271432 -1.018110 -0.091725
-208.658789 57.824753 -69.215960 158.173903 -5.223706 1.931255 2.635750 4.588577 2.464029 0.073499 0.151559 0.053485 0.141851 0.262191 0.103887 2.238970 4.473581 1.665832 -0.963061 15.554515 0.872269 -2.102838 -6.789319 1.928892 2.465473 8.222713 0.575470 -1.895445 -9.291494 -12.682692 -63.071177 -63.282830 106.918370 -2.137002 3.235422 -3.684386 -7.041526 6.856322 -3.659382 6.790312 -11.653997 9.699635 48.652902 -53.420904 -103.155796 -4.075156 2.895534 -16.489272 -17.758290 -66.336611 10.013775 -32.082081 73.176725 -31.375710 -2.377200 -8.272208 -3.441769 -0.304288 0.843152 -0.094494 2.230001 -68.266150 14.921294 41.273860 65.959175 34.158319 -18.485907 -9.032237 2.657414 -0.263698 -1.013671 -0.092032
